<svg xmlns="http://www.w3.org/2000/svg" viewBox="0 0 276 329" role="img" aria-label="ULSOO 시그니처 세로형">
  <title>ULSOO 시그니처 세로형</title>
  <g transform="translate(18.00 0)"><path fill="none" stroke="#173d7a" stroke-linecap="round" stroke-linejoin="round" stroke-width="13" d="M84 28c-14 24-7 52 18 78 23 25 47 51 44 85"/>
  <path fill="none" stroke="#9a2b24" stroke-linecap="round" stroke-linejoin="round" stroke-width="12" d="M26 100c32 16 72 11 104-16"/>
  <path fill="none" stroke="#173d7a" stroke-linecap="round" stroke-linejoin="round" stroke-width="6" d="M27 93c30 7 58 3 90-15M37 81c23 7 45 5 70-10M45 115v48M23 151h44"/>
  <path fill="none" stroke="#249aa4" stroke-linecap="round" stroke-linejoin="round" stroke-width="12" d="M151 78c26 10 50 6 72-19"/>
  <path fill="none" stroke="#d6a452" stroke-linecap="round" stroke-linejoin="round" stroke-width="10" d="M146 101c26-18 53-29 81-27"/>
  <path fill="none" stroke="#249aa4" stroke-linecap="round" stroke-linejoin="round" stroke-width="6" d="M179 85c19 8 36 5 50-8M182 102c19 6 35 4 48-6M189 118h32M205 67v69M190 137h31"/>
  <path fill="none" stroke="#d6a452" stroke-linecap="round" stroke-linejoin="round" stroke-width="7" d="M56 177c38-40 80-57 128-45"/>
  <path fill="none" stroke="#173d7a" stroke-linecap="round" stroke-linejoin="round" stroke-width="10" d="M87 74c14 31 25 73 24 115"/>
  <path fill="none" stroke="#9a2b24" stroke-linecap="round" stroke-linejoin="round" stroke-width="11" d="M101 120c34 16 75 27 116 11"/>
  <path fill="none" stroke="#e45f42" stroke-linecap="round" stroke-linejoin="round" stroke-width="12" d="M137 151c34 8 61 3 82-17"/>
  <path fill="none" stroke="#249aa4" stroke-linecap="round" stroke-linejoin="round" stroke-width="11" d="M124 143c28 0 52-14 72-42"/>
  <path fill="none" stroke="#d6a452" stroke-linecap="round" stroke-linejoin="round" stroke-width="10" d="M119 129c20 5 39-4 56-27"/>
  <path fill="none" stroke="#173d7a" stroke-linecap="round" stroke-linejoin="round" stroke-width="5" d="M96 68l25 19 17-32"/>
  <path fill="none" stroke="#9a2b24" stroke-linecap="round" stroke-linejoin="round" stroke-width="12" d="M113 58c-13-11-5-34 15-31 13 2 20 13 17 25"/>
  <path fill="none" stroke="#d6a452" stroke-linecap="round" stroke-linejoin="round" stroke-width="6" d="M143 51c-1 18-10 31-24 39"/>
  <path fill="none" stroke="#d6a452" stroke-linecap="round" stroke-linejoin="round" stroke-width="4" stroke-dasharray="2 7" d="M63 54c31 25 66 41 106 47M68 42c35 25 74 41 118 48M53 71c30 22 63 37 100 45M62 190c51-14 92-11 126 8M68 174c46-18 88-20 126-7M74 158c42-21 81-25 119-17"/>
  <path fill="none" stroke="#249aa4" stroke-linecap="round" stroke-linejoin="round" stroke-width="4" stroke-dasharray="2 7" d="M145 65c31 12 59 10 83-7M150 82c30 10 56 9 78-5M138 176c35 7 64 1 87-17"/></g>
  <g fill="#171310" transform="translate(0.00 256.20) scale(0.15428) translate(-30.0 450.0)">
    <path d="M30 -166 32 -198Q36 -207 36 -219Q36 -226 33 -235L30 -247L33 -265Q33 -268 31.5 -274.5Q30 -281 30 -283L34 -319L41 -337V-355Q41 -357 43.0 -363.0Q45 -369 45 -371L48 -373V-362H50Q52 -372 56.5 -380.0Q61 -388 61 -396V-398L54 -403Q54 -408 55.5 -412.5Q57 -417 57 -421L63 -434L71 -437Q72 -437 81.5 -436.0Q91 -435 102.5 -434.0Q114 -433 123.5 -432.0Q133 -431 133 -431L148 -419L154 -401V-393Q154 -367 148.0 -342.5Q142 -318 142 -289V-259V-253Q134 -236 130.5 -219.5Q127 -203 127 -183V-171Q127 -162 128.5 -147.5Q130 -133 130 -126Q130 -125 131.5 -119.0Q133 -113 135.0 -106.0Q137 -99 138.5 -93.5Q140 -88 141 -87Q149 -70 155.5 -62.0Q162 -54 167.5 -51.0Q173 -48 179.0 -48.5Q185 -49 191 -49Q198 -49 202 -51Q212 -51 223.0 -55.0Q234 -59 244.0 -66.5Q254 -74 260.5 -84.0Q267 -94 267 -105V-107L279 -160Q278 -161 277.5 -167.0Q277 -173 276.5 -180.0Q276 -187 276.0 -193.0Q276 -199 276 -201L277 -212Q277 -216 279.5 -221.0Q282 -226 282 -228L287 -226L283 -243L286 -252Q284 -255 283.5 -261.0Q283 -267 283 -270Q281 -270 278.0 -268.0Q275 -266 275 -265L271 -267V-281Q271 -298 272.0 -307.5Q273 -317 273 -332L259 -377L265 -379Q267 -380 269.5 -381.0Q272 -382 274 -382L280 -383Q289 -385 292.0 -385.5Q295 -386 303 -386Q308 -386 310.0 -384.5Q312 -383 317 -383H319Q318 -384 317 -384Q316 -384 316 -385Q316 -386 319 -386Q327 -386 336.0 -379.0Q345 -372 347 -359Q350 -351 354 -344Q356 -338 358.5 -331.0Q361 -324 361 -319Q361 -318 360.5 -317.0Q360 -316 360 -314V-310Q360 -302 361.5 -295.5Q363 -289 364 -281L362 -275V-200V-198Q362 -175 361.5 -163.5Q361 -152 359.5 -143.5Q358 -135 355.5 -127.5Q353 -120 350 -105Q347 -97 343.0 -92.0Q339 -87 337 -79Q331 -67 331.0 -58.5Q331 -50 323 -36Q306 -19 288.5 -9.5Q271 0 255.5 4.0Q240 8 226.5 8.5Q213 9 204 9Q180 9 157.0 6.0Q134 3 113.0 -6.5Q92 -16 74.5 -34.0Q57 -52 44 -82Q41 -88 37.0 -99.0Q33 -110 33 -112ZM55 -395V-393Q55 -392 54.0 -389.5Q53 -387 52 -385L50 -378H46L51 -395Z"/>
  <path d="M502.0 7 482.0 5Q465.0 3 450.0 -7.5Q435.0 -18 434.0 -34Q434.0 -37 435.0 -38L440.0 -39L442.0 -48Q440.0 -48 438.0 -50L439.0 -54L441.0 -56L439.0 -64Q439.0 -65 440.0 -65Q441.0 -64 442.0 -64L450.0 -74L452.0 -73Q450.0 -73 449.5 -69.0Q449.0 -65 449.0 -60V-56Q449.0 -55 450.0 -54H452.0Q453.0 -55 453.0 -58V-65Q453.0 -67 454.5 -73.5Q456.0 -80 456.0 -82V-113Q456.0 -115 457.5 -130.0Q459.0 -145 461.0 -162.0Q463.0 -179 464.5 -193.5Q466.0 -208 466.0 -210L472.0 -220L466.0 -234Q466.0 -239 468.0 -251.5Q470.0 -264 470.0 -268L473.0 -282L480.0 -292L474.0 -296V-315L479.0 -331L476.0 -332L487.0 -408Q487.0 -409 486.5 -409.5Q486.0 -410 486.0 -411Q486.0 -419 489.0 -429.5Q492.0 -440 492.0 -443L510.0 -444L528.0 -450H540.0Q544.0 -450 554.0 -444.0Q564.0 -438 569.0 -433L581.0 -422Q582.0 -420 584.0 -415.0Q586.0 -410 587.0 -410L588.0 -405Q587.0 -403 585.5 -392.5Q584.0 -382 580.0 -370Q581.0 -368 581.0 -365Q581.0 -362 579.5 -359.5Q578.0 -357 576.0 -355V-354L575.0 -353Q575.0 -352 576.0 -352H580.0Q580.0 -348 575.0 -343Q577.0 -341 577.0 -340Q577.0 -338 573.5 -333.5Q570.0 -329 570.0 -321L571.0 -318Q570.0 -316 569.0 -316.0Q568.0 -316 568.0 -315Q568.0 -313 571.0 -310Q570.0 -305 567.0 -305.0Q564.0 -305 564.0 -296Q564.0 -294 570.0 -293Q563.0 -289 563.0 -289Q563.0 -288 564.0 -288Q565.0 -288 565.0 -287.5Q565.0 -287 567.0 -287L571.0 -276Q568.0 -272 566.0 -269.5Q564.0 -267 564.0 -263V-262V-260Q564.0 -258 566.0 -256Q566.0 -242 563.5 -234.5Q561.0 -227 561.0 -222Q561.0 -219 562.0 -218L565.0 -216Q564.0 -209 561.5 -201.5Q559.0 -194 557.0 -193H555.0L554.0 -189L559.0 -190Q557.0 -188 555.0 -186.5Q553.0 -185 553.0 -183Q553.0 -182 554.0 -182H560.0L554.0 -162H559.0Q560.0 -159 559.5 -154.5Q559.0 -150 561.0 -148L559.0 -145Q559.0 -134 558.5 -128.5Q558.0 -123 557.0 -115L555.0 -113L560.0 -108Q559.0 -106 558.5 -106.0Q558.0 -106 556.0 -104L557.0 -107Q551.0 -103 549.0 -102L559.0 -101Q553.0 -95 550.0 -95H549.0H546.0V-90Q546.0 -76 550.0 -64.0Q554.0 -52 569.0 -52Q571.0 -52 572.0 -52.5Q573.0 -53 574.0 -53Q574.0 -50 576.0 -50Q580.0 -50 590.5 -53.0Q601.0 -56 615.0 -56H624.0Q632.0 -56 635.0 -60.5Q638.0 -65 642.0 -67Q645.0 -66 645.0 -65.5Q645.0 -65 647.0 -63Q653.0 -69 660.0 -69Q661.0 -68 665.5 -68.0Q670.0 -68 670.0 -64L674.0 -66Q676.0 -67 676.5 -68.0Q677.0 -69 678.0 -69Q685.0 -62 696.0 -61L694.0 -56Q695.0 -55 696.0 -55Q698.0 -55 698.5 -56.5Q699.0 -58 704.0 -58Q704.0 -57 714.0 -53.0Q724.0 -49 724.0 -44Q724.0 -42 723.0 -41L724.0 -33Q717.0 -30 711.0 -28.0Q705.0 -26 701.0 -22Q698.0 -22 695.5 -24.0Q693.0 -26 694.0 -25Q693.0 -23 693.0 -20V-19Q693.0 -18 695.0 -18Q685.0 -17 677.5 -15.5Q670.0 -14 661.0 -14Q658.0 -14 655.0 -14.5Q652.0 -15 648.0 -15Q639.0 -15 625.5 -7.5Q612.0 0 597.0 0H589.0Q585.0 0 578.0 0.5Q571.0 1 564.5 2.0Q558.0 3 553.5 5.0Q549.0 7 549.0 11L547.0 7Q545.0 12 542.5 14.0Q540.0 16 538.0 20Q536.0 18 536.0 15Q536.0 10 538.0 5Q535.0 7 525.0 7Q523.0 2 520.0 0.5Q517.0 -1 517.0 -2L506.0 5ZM719.0 -45Q717.0 -45 716.0 -44Q716.0 -43 718.0 -41Q720.0 -41 720.0 -44Q720.0 -45 719.0 -45Z"/>
  <path d="M792.0 -48Q802.0 -51 816.0 -51Q844.0 -51 868.0 -47.0Q892.0 -43 912.0 -42L920.0 -47L947.0 -49Q948.0 -48 950.0 -48Q954.0 -48 956.0 -51.0Q958.0 -54 961.0 -54Q970.0 -54 983.0 -58.0Q996.0 -62 1000.0 -68Q1007.0 -91 1010.0 -114.0Q1013.0 -137 1013.0 -154L1007.0 -166Q1007.0 -171 999.5 -173.5Q992.0 -176 990.0 -176L979.0 -180Q970.0 -180 963.5 -183.0Q957.0 -186 949.5 -189.0Q942.0 -192 931.0 -195.0Q920.0 -198 903.0 -198H894.0Q890.0 -198 890.0 -202Q882.0 -210 872.5 -212.0Q863.0 -214 856.0 -223Q854.0 -224 851.0 -231.5Q848.0 -239 845.0 -248.5Q842.0 -258 840.0 -267.0Q838.0 -276 838.0 -279Q843.0 -279 843.0 -286Q843.0 -288 842.5 -290.0Q842.0 -292 842.0 -294Q842.0 -296 845.0 -299L849.0 -302Q853.0 -306 851.5 -309.5Q850.0 -313 854.0 -315V-306L856.0 -307L879.0 -379L910.0 -412L928.0 -423L947.0 -416Q954.0 -416 963.5 -419.0Q973.0 -422 981.0 -422Q995.0 -422 1014.0 -417.0Q1033.0 -412 1051.0 -404.5Q1069.0 -397 1083.5 -389.5Q1098.0 -382 1103.0 -378Q1102.0 -371 1100.0 -371.0Q1098.0 -371 1098.0 -369Q1098.0 -366 1099.0 -364.5Q1100.0 -363 1100.0 -360Q1100.0 -357 1095.0 -353.0Q1090.0 -349 1086.0 -349L1028.0 -354H1025.0Q1020.0 -354 1009.5 -354.5Q999.0 -355 994.0 -355Q979.0 -355 967.0 -347.0Q955.0 -339 946.5 -325.5Q938.0 -312 933.5 -295.5Q929.0 -279 929.0 -261Q929.0 -258 933.0 -255.0Q937.0 -252 942.0 -250.5Q947.0 -249 952.0 -248.0Q957.0 -247 960.0 -247L964.0 -246Q971.0 -241 973.0 -239.0Q975.0 -237 980.0 -237H984.0L996.0 -238L1013.0 -232Q1015.0 -231 1020.0 -231H1031.0Q1047.0 -225 1062.0 -218.0Q1077.0 -211 1088.5 -198.5Q1100.0 -186 1107.0 -166.5Q1114.0 -147 1114.0 -117Q1114.0 -108 1113.0 -99.5Q1112.0 -91 1109.0 -81L1108.0 -79Q1106.0 -77 1101.0 -70.0Q1096.0 -63 1094.0 -62L1090.0 -51L1085.0 -47L1046.0 4Q1033.0 6 1021.5 10.5Q1010.0 15 998.0 15Q996.0 15 990.0 13Q982.0 15 975.0 15.0Q968.0 15 961.0 15Q951.0 15 926.0 13.0Q901.0 11 873.5 7.5Q846.0 4 820.5 0.5Q795.0 -3 783.0 -6Q783.0 -9 785.5 -9.5Q788.0 -10 788.0 -14Q788.0 -15 787.0 -15H786.0Q784.0 -15 783.0 -18Q785.0 -18 789.5 -19.0Q794.0 -20 794.0 -22L791.0 -29L793.0 -32Q794.0 -34 795.0 -35.0Q796.0 -36 796.0 -37Q796.0 -42 794.0 -41.0Q792.0 -40 792.0 -48ZM862.0 -345Q862.0 -343 859.5 -332.5Q857.0 -322 856.0 -320Q853.0 -320 853.0 -323Q853.0 -324 856.0 -333.5Q859.0 -343 862.0 -345ZM869.0 -371Q869.0 -370 870.0 -370H873.0L864.0 -355Q862.0 -355 862.0 -358Q862.0 -360 864.5 -364.5Q867.0 -369 869.0 -371Z"/>
  <path d="M1213.0 -251Q1216.0 -262 1223.0 -269.5Q1230.0 -277 1235.0 -287Q1236.0 -288 1241.0 -295.0Q1246.0 -302 1252.0 -310.5Q1258.0 -319 1263.5 -325.5Q1269.0 -332 1271.0 -332Q1271.0 -336 1274.5 -341.0Q1278.0 -346 1282.5 -350.5Q1287.0 -355 1291.5 -358.0Q1296.0 -361 1298.0 -361H1304.0L1306.0 -357H1315.0Q1320.0 -356 1324.5 -352.5Q1329.0 -349 1334.0 -348H1342.0Q1372.0 -341 1401.5 -328.5Q1431.0 -316 1451.0 -289Q1456.0 -273 1461.0 -258.5Q1466.0 -244 1472.0 -228Q1472.0 -220 1471.5 -207.5Q1471.0 -195 1469.0 -157V-151Q1469.0 -145 1465.5 -134.0Q1462.0 -123 1457.5 -112.0Q1453.0 -101 1448.0 -93.0Q1443.0 -85 1440.0 -85L1439.0 -84Q1434.0 -76 1421.5 -64.0Q1409.0 -52 1391.0 -40.0Q1373.0 -28 1351.0 -19.5Q1329.0 -11 1305.0 -11Q1289.0 -11 1274.0 -14.5Q1259.0 -18 1246.0 -23L1237.0 -33L1215.0 -37Q1209.0 -41 1204.5 -48.5Q1200.0 -56 1196.0 -62Q1182.0 -77 1178.5 -93.5Q1175.0 -110 1175.0 -133Q1175.0 -138 1176.0 -140.5Q1177.0 -143 1177.0 -148V-151Q1177.0 -152 1178.5 -157.0Q1180.0 -162 1181.5 -167.5Q1183.0 -173 1184.5 -177.5Q1186.0 -182 1186.0 -184L1192.0 -192Q1192.0 -195 1195.0 -198.5Q1198.0 -202 1198.0 -204L1200.0 -201Q1201.0 -203 1202.0 -208.0Q1203.0 -213 1204.0 -214L1207.0 -221Q1207.0 -223 1208.5 -228.0Q1210.0 -233 1211.0 -235H1206.0Q1205.0 -235 1204.0 -234ZM1266.0 -140Q1266.0 -136 1265.5 -129.0Q1265.0 -122 1265.0 -115Q1265.0 -105 1267.0 -97L1273.0 -65L1283.0 -67Q1286.0 -63 1292.0 -63Q1305.0 -63 1319.0 -67.5Q1333.0 -72 1344.0 -82L1362.0 -106L1372.0 -129L1375.0 -153Q1379.0 -162 1380.0 -171.0Q1381.0 -180 1381.0 -189V-209Q1381.0 -222 1380.5 -242.5Q1380.0 -263 1371.0 -274Q1364.0 -282 1352.5 -293.0Q1341.0 -304 1333.0 -304Q1329.0 -304 1323.5 -298.0Q1318.0 -292 1316.0 -292Q1307.0 -285 1305.5 -274.0Q1304.0 -263 1299.0 -253L1297.0 -238Q1284.0 -212 1275.0 -189.0Q1266.0 -166 1266.0 -140ZM1222.0 -221 1213.0 -201Q1213.0 -197 1212.0 -194.0Q1211.0 -191 1211.0 -187L1214.0 -186L1223.0 -208Q1223.0 -210 1223.5 -215.0Q1224.0 -220 1225.0 -221ZM1186.0 -167Q1184.0 -165 1184.0 -160L1183.0 -154L1187.0 -158Q1187.0 -160 1188.5 -163.0Q1190.0 -166 1190.0 -167L1192.0 -172ZM1196.0 -191Q1192.0 -187 1192.0 -183V-180L1200.0 -190ZM1222.0 -245Q1222.0 -248 1220.0 -248Q1218.0 -248 1218.0 -245Q1218.0 -243 1220.0 -243Q1220.0 -243 1222.0 -245ZM1204.0 -169 1207.0 -171 1208.0 -179Z"/>
  <path d="M1560.0 -251Q1563.0 -262 1570.0 -269.5Q1577.0 -277 1582.0 -287Q1583.0 -288 1588.0 -295.0Q1593.0 -302 1599.0 -310.5Q1605.0 -319 1610.5 -325.5Q1616.0 -332 1618.0 -332Q1618.0 -336 1621.5 -341.0Q1625.0 -346 1629.5 -350.5Q1634.0 -355 1638.5 -358.0Q1643.0 -361 1645.0 -361H1651.0L1653.0 -357H1662.0Q1667.0 -356 1671.5 -352.5Q1676.0 -349 1681.0 -348H1689.0Q1719.0 -341 1748.5 -328.5Q1778.0 -316 1798.0 -289Q1803.0 -273 1808.0 -258.5Q1813.0 -244 1819.0 -228Q1819.0 -220 1818.5 -207.5Q1818.0 -195 1816.0 -157V-151Q1816.0 -145 1812.5 -134.0Q1809.0 -123 1804.5 -112.0Q1800.0 -101 1795.0 -93.0Q1790.0 -85 1787.0 -85L1786.0 -84Q1781.0 -76 1768.5 -64.0Q1756.0 -52 1738.0 -40.0Q1720.0 -28 1698.0 -19.5Q1676.0 -11 1652.0 -11Q1636.0 -11 1621.0 -14.5Q1606.0 -18 1593.0 -23L1584.0 -33L1562.0 -37Q1556.0 -41 1551.5 -48.5Q1547.0 -56 1543.0 -62Q1529.0 -77 1525.5 -93.5Q1522.0 -110 1522.0 -133Q1522.0 -138 1523.0 -140.5Q1524.0 -143 1524.0 -148V-151Q1524.0 -152 1525.5 -157.0Q1527.0 -162 1528.5 -167.5Q1530.0 -173 1531.5 -177.5Q1533.0 -182 1533.0 -184L1539.0 -192Q1539.0 -195 1542.0 -198.5Q1545.0 -202 1545.0 -204L1547.0 -201Q1548.0 -203 1549.0 -208.0Q1550.0 -213 1551.0 -214L1554.0 -221Q1554.0 -223 1555.5 -228.0Q1557.0 -233 1558.0 -235H1553.0Q1552.0 -235 1551.0 -234ZM1613.0 -140Q1613.0 -136 1612.5 -129.0Q1612.0 -122 1612.0 -115Q1612.0 -105 1614.0 -97L1620.0 -65L1630.0 -67Q1633.0 -63 1639.0 -63Q1652.0 -63 1666.0 -67.5Q1680.0 -72 1691.0 -82L1709.0 -106L1719.0 -129L1722.0 -153Q1726.0 -162 1727.0 -171.0Q1728.0 -180 1728.0 -189V-209Q1728.0 -222 1727.5 -242.5Q1727.0 -263 1718.0 -274Q1711.0 -282 1699.5 -293.0Q1688.0 -304 1680.0 -304Q1676.0 -304 1670.5 -298.0Q1665.0 -292 1663.0 -292Q1654.0 -285 1652.5 -274.0Q1651.0 -263 1646.0 -253L1644.0 -238Q1631.0 -212 1622.0 -189.0Q1613.0 -166 1613.0 -140ZM1569.0 -221 1560.0 -201Q1560.0 -197 1559.0 -194.0Q1558.0 -191 1558.0 -187L1561.0 -186L1570.0 -208Q1570.0 -210 1570.5 -215.0Q1571.0 -220 1572.0 -221ZM1533.0 -167Q1531.0 -165 1531.0 -160L1530.0 -154L1534.0 -158Q1534.0 -160 1535.5 -163.0Q1537.0 -166 1537.0 -167L1539.0 -172ZM1543.0 -191Q1539.0 -187 1539.0 -183V-180L1547.0 -190ZM1569.0 -245Q1569.0 -248 1567.0 -248Q1565.0 -248 1565.0 -245Q1565.0 -243 1567.0 -243Q1567.0 -243 1569.0 -245ZM1551.0 -169 1554.0 -171 1555.0 -179Z"/>
  </g>
</svg>
